<svg xmlns="http://www.w3.org/2000/svg" style="display: none;"><symbol id="icon-folder-15" viewBox="0 0 48 48"><g class="nc-icon-wrapper"><path fill="currentColor" d="M46,10H24.5l-5.7-7.6C18.611,2.148,18.315,2,18,2H2C1.448,2,1,2.448,1,3v39c0,2.209,1.791,4,4,4h38 c2.209,0,4-1.791,4-4V11C47,10.448,46.552,10,46,10z"/></g></symbol><symbol id="icon-folder-18" viewBox="0 0 48 48"><g class="nc-icon-wrapper"><path data-color="color-2" d="M7.133,17.118C7.521,15.852,8.674,15,10,15h30v-5c0-0.552-0.447-1-1-1H20.535l-3.703-5.555 C16.646,3.167,16.334,3,16,3H2C1.447,3,1,3.448,1,4v33.049L7.133,17.118z"/> <path fill="currentColor" d="M46.805,17.406C46.616,17.15,46.317,17,46,17H10c-0.439,0-0.827,0.286-0.956,0.706l-8,26 c-0.093,0.303-0.037,0.633,0.151,0.888S1.683,45,2,45h36c0.439,0,0.827-0.286,0.956-0.706l8-26 C47.049,17.991,46.993,17.661,46.805,17.406z"/></g></symbol><symbol id="icon-folder-16" viewBox="0 0 48 48"><g class="nc-icon-wrapper"><path data-color="color-2" d="M42,15v-5c0-0.552-0.447-1-1-1H26.535l-3.703-5.555C22.646,3.167,22.334,3,22,3H7 C6.447,3,6,3.448,6,4v11H42z"/> <path fill="currentColor" d="M46,17H2c-0.298,0-0.581,0.133-0.771,0.363c-0.19,0.23-0.268,0.533-0.212,0.826l5,26 C6.108,44.66,6.521,45,7,45h34c0.479,0,0.892-0.34,0.982-0.811l5-26c0.056-0.293-0.021-0.596-0.212-0.826 C46.581,17.133,46.298,17,46,17z"/></g></symbol><symbol id="icon-folder-bookmark" viewBox="0 0 48 48"><g class="nc-icon-wrapper"><path fill="currentColor" d="M46,10H24.5l-5.701-7.6C18.611,2.148,18.314,2,18,2H2C1.448,2,1,2.448,1,3v39c0,2.209,1.791,4,4,4h38 c2.209,0,4-1.791,4-4V11C47,10.448,46.552,10,46,10z M36,27l-7,5V13h14v19L36,27z"/></g></symbol><symbol id="icon-stre-down" viewBox="0 0 48 48"><g class="nc-icon-wrapper"><path fill="currentColor" d="M47.177,17.618l-2.354-3.235L24,29.527L3.177,14.382l-2.354,3.235l22,16c0.702,0.51,1.651,0.51,2.354,0 L47.177,17.618z"/></g></symbol><symbol id="icon-stre-up" viewBox="0 0 48 48"><g class="nc-icon-wrapper"><path fill="currentColor" d="M47.177,30.382l-2.354,3.235L24,18.473L3.177,33.618l-2.354-3.235l22-16c0.702-0.51,1.651-0.51,2.354,0 L47.177,30.382z"/></g></symbol><symbol id="icon-stre-right" viewBox="0 0 48 48"><g class="nc-icon-wrapper"><path fill="currentColor" d="M17.618,47.177l-3.235-2.354L29.527,24L14.382,3.177l3.235-2.354l16,22c0.51,0.702,0.51,1.651,0,2.354 L17.618,47.177z"/></g></symbol><symbol id="icon-stre-left" viewBox="0 0 48 48"><g class="nc-icon-wrapper"><path fill="currentColor" d="M30.382,47.177l3.235-2.354L18.473,24L33.618,3.177l-3.235-2.354l-16,22c-0.51,0.702-0.51,1.651,0,2.354 L30.382,47.177z"/></g></symbol><symbol id="icon-single-03" viewBox="0 0 32 32"><g class="nc-icon-wrapper" stroke-linecap="square" stroke-linejoin="miter"><path data-color="color-2" fill="none" stroke-miterlimit="10" d="M2,31L2,31 c0-7.732,6.268-14,14-14h0c7.732,0,14,6.268,14,14v0"/> <circle fill="none" stroke="currentColor" stroke-miterlimit="10" cx="16" cy="9" r="8"/></g></symbol><symbol id="icon-single-03-2" viewBox="0 0 48 48"><g class="nc-icon-wrapper" stroke-linecap="square" stroke-linejoin="miter"><path data-color="color-2" fill="none" stroke-miterlimit="10" d="M2,46 c0-11.046,8.954-20,20-20h4c11.046,0,20,8.954,20,20"/> <circle fill="none" stroke="currentColor" stroke-miterlimit="10" cx="24" cy="14" r="12"/></g></symbol><symbol id="icon-alarm" viewBox="0 0 48 48"><g class="nc-icon-wrapper" stroke-linecap="square" stroke-linejoin="miter"><path data-color="color-2" fill="none" stroke-miterlimit="10" d="M30,40 c0,3.3-2.7,6-6,6s-6-2.7-6-6"/> <path fill="none" stroke="currentColor" stroke-miterlimit="10" d="M38,26c0-5.1,0-10,0-10 c0-7.7-6.3-14-14-14S10,8.3,10,16c0,0,0,4.9,0,10c0,8-4,14-4,14h36C42,40,38,34,38,26z"/></g></symbol><symbol id="icon-alarm-2" viewBox="0 0 48 48"><g class="nc-icon-wrapper"><path fill="currentColor" d="M42.8,39.4c0-0.1-3.8-5.8-3.8-13.4V16c0-8.3-6.7-15-15-15S9,7.7,9,16v10c0,7.6-3.8,13.4-3.8,13.4 c-0.2,0.3-0.2,0.7,0,1C5.3,40.8,5.6,41,6,41h36c0.4,0,0.7-0.2,0.9-0.5C43.1,40.1,43,39.8,42.8,39.4z"/> <path data-color="color-2" d="M17.7,43c1.1,2.4,3.5,4,6.3,4s5.2-1.6,6.3-4H17.7z"/></g></symbol><symbol id="icon-ic_notifications_48px" viewBox="0 0 48 48"><g class="nc-icon-wrapper" fill="currentColor">
        <path fill="currentColor" d="M24 44c2.21 0 4-1.79 4-4h-8c0 2.21 1.79 4 4 4zm12-12V22c0-6.15-3.27-11.28-9-12.64V8c0-1.66-1.34-3-3-3s-3 1.34-3 3v1.36c-5.73 1.36-9 6.49-9 12.64v10l-4 4v2h32v-2l-4-4z"/>
    </g></symbol><symbol id="icon-house" viewBox="0 0 24 24"><g class="nc-icon-wrapper"><path d="M22.625,8.219l-10-8a1,1,0,0,0-1.25,0l-10,8A1,1,0,0,0,1,9V22a1,1,0,0,0,1,1H9V15h6v8h7a1,1,0,0,0,1-1V9A1,1,0,0,0,22.625,8.219Z" fill="currentColor"/></g></symbol><symbol id="icon-home" viewBox="0 0 24 24"><g class="nc-icon-wrapper"><path d="M23.633,10.226l-11-9a1,1,0,0,0-1.266,0l-11,9a1,1,0,0,0,1.266,1.548L3,10.656V22a1,1,0,0,0,1,1h6V17h4v6h6a1,1,0,0,0,1-1V10.656l1.367,1.118a1,1,0,1,0,1.266-1.548Z" fill="currentColor"/></g></symbol><symbol id="icon-bin" viewBox="0 0 24 24"><g class="nc-icon-wrapper"><path d="M3,8V21a3,3,0,0,0,3,3H18a3,3,0,0,0,3-3V8ZM9,19H7V12H9Zm4,0H11V12h2Zm4,0H15V12h2Z" fill="currentColor"/> <path data-color="color-2" d="M23,4H17V1a1,1,0,0,0-1-1H8A1,1,0,0,0,7,1V4H1A1,1,0,0,0,1,6H23a1,1,0,0,0,0-2ZM9,2h6V4H9Z"/></g></symbol><symbol id="icon-stack" viewBox="0 0 24 24"><g class="nc-icon-wrapper"><polygon fill="currentColor" points="12,0 24,7 12,14 0,7 "/> <polygon data-color="color-2" points="12,21.315 2.301,15.658 0,17 12,24 24,17 21.699,15.658 "/> <polygon data-color="color-2" points="12,16.315 2.301,10.658 0,12 12,19 24,12 21.699,10.658 "/></g></symbol><symbol id="icon-folder-18-2" viewBox="0 0 24 24"><g class="nc-icon-wrapper"><path fill="currentColor" d="M23.805,8.406C23.616,8.15,23.317,8,23,8h-2V5c0-0.552-0.447-1-1-1h-9.465L8.832,1.445 C8.646,1.167,8.334,1,8,1H1C0.447,1,0,1.448,0,2v19.978c-0.002,0.074,0.005,0.148,0.02,0.22c0.029,0.145,0.09,0.279,0.174,0.395 c0.087,0.118,0.199,0.217,0.333,0.289c0.099,0.053,0.208,0.091,0.323,0.108C0.9,22.997,0.95,23,1,23c0.008,0,0.016,0,0.023,0H19 c0.439,0,0.827-0.286,0.956-0.706l4-13C24.049,8.991,23.993,8.661,23.805,8.406z M2,3h5.465l1.703,2.555C9.354,5.833,9.666,6,10,6h9 v2H5C4.561,8,4.173,8.286,4.044,8.706L2,15.35V3z"/></g></symbol><symbol id="icon-folder-15-2" viewBox="0 0 24 24"><g class="nc-icon-wrapper"><path fill="currentColor" d="M23,4H12.5L9.8,0.4C9.6,0.1,9.3,0,9,0H1C0.4,0,0,0.4,0,1v22c0,0.6,0.4,1,1,1h22c0.6,0,1-0.4,1-1V5 C24,4.4,23.6,4,23,4z"/></g></symbol><symbol id="icon-file-paragraph" viewBox="0 0 24 24"><g class="nc-icon-wrapper"><path d="M2,1V23a1,1,0,0,0,1,1H21a1,1,0,0,0,1-1V1a1,1,0,0,0-1-1H3A1,1,0,0,0,2,1ZM5,5h6v6H5ZM19,19H5V17H19Zm0-4H5V13H19Zm0-4H13V9h6Zm0-4H13V5h6Z" fill="currentColor"/></g></symbol><symbol id="icon-player-19" viewBox="0 0 24 24"><g class="nc-icon-wrapper"><path data-color="color-2" d="M18,23H6c-0.553,0-1-0.448-1-1s0.447-1,1-1h12c0.553,0,1,0.448,1,1S18.553,23,18,23z"/> <path fill="currentColor" d="M23,1H1C0.447,1,0,1.448,0,2v16c0,0.552,0.447,1,1,1h22c0.553,0,1-0.448,1-1V2C24,1.448,23.553,1,23,1z M15.515,10.857l-5,3C10.356,13.953,10.178,14,10,14c-0.17,0-0.34-0.043-0.493-0.13C9.193,13.693,9,13.36,9,13V7 c0-0.36,0.193-0.693,0.507-0.87c0.313-0.178,0.698-0.174,1.008,0.013l5,3C15.815,9.323,16,9.649,16,10S15.815,10.677,15.515,10.857z "/></g></symbol><symbol id="icon-music" viewBox="0 0 24 24"><g class="nc-icon-wrapper"><path fill="currentColor" d="M22,0H2C1.447,0,1,0.448,1,1v22c0,0.552,0.447,1,1,1h20c0.553,0,1-0.448,1-1V1C23,0.448,22.553,0,22,0z M18,15.5c0,1.378-1.121,2.5-2.5,2.5S13,16.878,13,15.5s1.121-2.5,2.5-2.5c0.171,0,0.338,0.018,0.5,0.051V8h-5v8.5 c0,1.378-1.121,2.5-2.5,2.5S6,17.878,6,16.5S7.121,14,8.5,14c0.171,0,0.338,0.018,0.5,0.051V7c0-0.552,0.447-1,1-1h7 c0.553,0,1,0.448,1,1V15.5z"/></g></symbol><symbol id="icon-c-add" viewBox="0 0 24 24"><g class="nc-icon-wrapper"><path d="M12,0A12,12,0,1,0,24,12,12.035,12.035,0,0,0,12,0Zm6,13H13v5H11V13H6V11h5V6h2v5h5Z" fill="currentColor"/></g></symbol><symbol id="icon-ic_remove_circle_24px" viewBox="0 0 24 24"><g class="nc-icon-wrapper" fill="currentColor">
        <path d="M12 2C6.48 2 2 6.48 2 12s4.48 10 10 10 10-4.48 10-10S17.52 2 12 2zm5 11H7v-2h10v2z"/>
    </g></symbol><symbol id="icon-e-remove" viewBox="0 0 32 32"><g class="nc-icon-wrapper" stroke-linecap="square" stroke-linejoin="miter"><line fill="none" stroke="currentColor" stroke-miterlimit="10" x1="27" y1="5" x2="5" y2="27"/> <line fill="none" stroke="currentColor" stroke-miterlimit="10" x1="27" y1="27" x2="5" y2="5"/></g></symbol><symbol id="icon-e-delete" viewBox="0 0 32 32"><g class="nc-icon-wrapper" stroke-linecap="square" stroke-linejoin="miter"><line fill="none" stroke="currentColor" stroke-miterlimit="10" x1="30" y1="16" x2="2" y2="16"/></g></symbol><symbol id="icon-bin-2" viewBox="0 0 32 32"><g class="nc-icon-wrapper" stroke-linecap="square" stroke-linejoin="miter"><path d="M27,10V28a3,3,0,0,1-3,3H8a3,3,0,0,1-3-3V10" fill="none" stroke="currentColor" stroke-miterlimit="10"/> <line x1="16" y1="15" x2="16" y2="25" fill="none" stroke="currentColor" stroke-miterlimit="10"/> <line x1="11" y1="15" x2="11" y2="25" fill="none" stroke="currentColor" stroke-miterlimit="10"/> <line x1="21" y1="15" x2="21" y2="25" fill="none" stroke="currentColor" stroke-miterlimit="10"/> <polyline data-cap="butt" data-color="color-2" points="11 6 11 1 21 1 21 6" fill="none" stroke-miterlimit="10" stroke-linecap="butt"/> <line data-color="color-2" x1="30" y1="6" x2="2" y2="6" fill="none" stroke-miterlimit="10"/></g></symbol><symbol id="icon-microsoft" viewBox="0 0 32 32"><g class="nc-icon-wrapper" stroke-linecap="square" stroke-linejoin="miter"><rect x="2" y="2" fill="none" stroke="currentColor" stroke-miterlimit="10" width="12" height="12"/> <rect data-color="color-2" x="18" y="2" fill="none" stroke-miterlimit="10" width="12" height="12"/> <rect data-color="color-2" x="2" y="18" fill="none" stroke-miterlimit="10" width="12" height="12"/> <rect x="18" y="18" fill="none" stroke="currentColor" stroke-miterlimit="10" width="12" height="12"/></g></symbol><symbol id="icon-paragraph" viewBox="0 0 32 32"><g class="nc-icon-wrapper" stroke-linecap="square" stroke-linejoin="miter"><line data-color="color-2" x1="18" y1="4" x2="30" y2="4" fill="none" stroke-miterlimit="10"/> <line data-color="color-2" x1="18" y1="10" x2="30" y2="10" fill="none" stroke-miterlimit="10"/> <line data-color="color-2" x1="18" y1="21" x2="30" y2="21" fill="none" stroke-miterlimit="10"/> <line data-color="color-2" x1="18" y1="27" x2="30" y2="27" fill="none" stroke-miterlimit="10"/> <rect x="2" y="2" width="11" height="11" fill="none" stroke="currentColor" stroke-miterlimit="10"/> <rect x="2" y="19" width="11" height="11" fill="none" stroke="currentColor" stroke-miterlimit="10"/></g></symbol><symbol id="icon-bullet-list-70" viewBox="0 0 32 32"><g class="nc-icon-wrapper"><path data-color="color-2" d="M30,3H13c-0.6,0-1,0.4-1,1v2c0,0.6,0.4,1,1,1h17c0.6,0,1-0.4,1-1V4C31,3.4,30.6,3,30,3z"/> <path data-color="color-2" d="M30,14H13c-0.6,0-1,0.4-1,1v2c0,0.6,0.4,1,1,1h17c0.6,0,1-0.4,1-1v-2C31,14.4,30.6,14,30,14z "/> <path data-color="color-2" d="M30,25H13c-0.6,0-1,0.4-1,1v2c0,0.6,0.4,1,1,1h17c0.6,0,1-0.4,1-1v-2C31,25.4,30.6,25,30,25z "/> <path fill="currentColor" d="M8,1H2C1.4,1,1,1.4,1,2v6c0,0.6,0.4,1,1,1h6c0.6,0,1-0.4,1-1V2C9,1.4,8.6,1,8,1z"/> <path fill="currentColor" d="M8,12H2c-0.6,0-1,0.4-1,1v6c0,0.6,0.4,1,1,1h6c0.6,0,1-0.4,1-1v-6C9,12.4,8.6,12,8,12z"/> <path fill="currentColor" d="M8,23H2c-0.6,0-1,0.4-1,1v6c0,0.6,0.4,1,1,1h6c0.6,0,1-0.4,1-1v-6C9,23.4,8.6,23,8,23z"/></g></symbol><symbol id="icon-grid-interface" viewBox="0 0 32 32"><g class="nc-icon-wrapper"><path fill="currentColor" d="M13,1H2C1.447,1,1,1.447,1,2v11c0,0.553,0.447,1,1,1h11c0.553,0,1-0.447,1-1V2C14,1.447,13.553,1,13,1z"/> <path data-color="color-2" d="M30,1H19c-0.553,0-1,0.447-1,1v11c0,0.553,0.447,1,1,1h11c0.553,0,1-0.447,1-1V2 C31,1.447,30.553,1,30,1z"/> <path data-color="color-2" d="M13,18H2c-0.553,0-1,0.447-1,1v11c0,0.553,0.447,1,1,1h11c0.553,0,1-0.447,1-1V19 C14,18.447,13.553,18,13,18z"/> <path fill="currentColor" d="M30,18H19c-0.553,0-1,0.447-1,1v11c0,0.553,0.447,1,1,1h11c0.553,0,1-0.447,1-1V19 C31,18.447,30.553,18,30,18z"/></g></symbol><symbol id="icon-e-add" viewBox="0 0 32 32"><g class="nc-icon-wrapper" stroke-linecap="square" stroke-linejoin="miter"><line fill="none" stroke="currentColor" stroke-miterlimit="10" x1="16" y1="2" x2="16" y2="30"/> <line fill="none" stroke="currentColor" stroke-miterlimit="10" x1="30" y1="16" x2="2" y2="16"/></g></symbol><symbol id="icon-e-add-2" viewBox="0 0 16 16"><g class="nc-icon-wrapper"><path fill="currentColor" d="M15,7H9V1c0-0.6-0.4-1-1-1S7,0.4,7,1v6H1C0.4,7,0,7.4,0,8s0.4,1,1,1h6v6c0,0.6,0.4,1,1,1s1-0.4,1-1V9h6 c0.6,0,1-0.4,1-1S15.6,7,15,7z"/></g></symbol><symbol id="icon-stre-down-2" viewBox="0 0 16 16"><g class="nc-icon-wrapper"><path fill="currentColor" d="M8,12c-0.232,0-0.463-0.08-0.651-0.241l-7.759-6.65L0.892,3.59L8,9.683l7.108-6.093l1.302,1.519l-7.759,6.65 C8.463,11.92,8.232,12,8,12z"/></g></symbol><symbol id="icon-circle" viewBox="0 0 16 16"><g class="nc-icon-wrapper"><path fill="currentColor" d="M8,16c-1.199,0-2.352-0.259-3.428-0.77l0.857-1.807C6.235,13.806,7.1,14,8,14c3.309,0,6-2.691,6-6 s-2.691-6-6-6S2,4.691,2,8c0,0.901,0.194,1.766,0.578,2.572l-1.806,0.859C0.26,10.354,0,9.2,0,8c0-4.411,3.589-8,8-8s8,3.589,8,8 S12.411,16,8,16z"/> </g></symbol><symbol id="icon-refresh-69" viewBox="0 0 48 48"><g class="nc-icon-wrapper" stroke-linecap="square" stroke-linejoin="miter"><path data-cap="butt" fill="none" stroke="currentColor" stroke-miterlimit="10" d="M4,24C4,13,13,4,24,4 c7.8,0,14.6,4.5,17.9,11" stroke-linecap="butt"/> <path data-cap="butt" data-color="color-2" fill="none" stroke-miterlimit="10" d="M44,24c0,11-9,20-20,20 c-7.8,0-14.6-4.5-17.9-11" stroke-linecap="butt"/> <polyline fill="none" stroke="currentColor" stroke-miterlimit="10" points="43.6,3.3 42,15.2 30.1,13.6 "/> <polyline data-color="color-2" fill="none" stroke-miterlimit="10" points=" 4.4,44.7 6,32.8 17.9,34.4 "/></g></symbol><symbol id="icon-square-corner-up-right" viewBox="0 0 48 48"><g class="nc-icon-wrapper"><path fill="currentColor" d="M45,1H3C1.895,1,1,1.895,1,3v42c0,1.105,0.895,2,2,2h42c1.105,0,2-0.895,2-2V3C47,1.895,46.105,1,45,1z M39,22c0,0.552-0.447,1-1,1s-1-0.448-1-1v-9.586L24.707,24.707C24.512,24.902,24.256,25,24,25s-0.512-0.098-0.707-0.293 c-0.391-0.391-0.391-1.023,0-1.414L35.586,11H26c-0.553,0-1-0.448-1-1s0.447-1,1-1h12c0.13,0,0.26,0.027,0.382,0.077 c0.245,0.101,0.44,0.296,0.541,0.541C38.974,9.74,39,9.87,39,10V22z"/></g></symbol><symbol id="icon-menu-5" viewBox="0 0 48 48"><g class="nc-icon-wrapper"><circle data-color="color-2" cx="24" cy="24" r="4"/> <circle fill="currentColor" cx="6" cy="24" r="4"/> <circle fill="currentColor" cx="42" cy="24" r="4"/></g></symbol></svg>