<?xml version="1.0" encoding="utf-8"?>
<!-- Generator: Adobe Illustrator 23.0.0, SVG Export Plug-In . SVG Version: 6.00 Build 0)  -->
<svg version="1.1" id="Layer_1" xmlns="http://www.w3.org/2000/svg" xmlns:xlink="http://www.w3.org/1999/xlink" x="0px" y="0px"
	 viewBox="0 0 227 54" style="enable-background:new 0 0 227 54;" xml:space="preserve">
<style type="text/css">
	.st0{opacity:0.5;}
	.st1{fill:#02EBCD;stroke:#07DDBE;stroke-miterlimit:10;}
	.st2{display:none;}
	.st3{display:inline;fill:#3D4852;}
	.st4{fill:#3D4852;}
</style>
<g>
	<g class="st0">
		<path class="st1" d="M0,45.01c74.9,7.47,149.86,8.95,224.79,4.45c0.94-0.06,1.48-41.96,2.21-42.01
			C152.07,11.95,77.11,10.47,2.21,3C1.53,2.93,0.46,45.05,0,45.01L0,45.01z"/>
	</g>
</g>
<g class="st2">
	<path class="st3" d="M15.26,17.81h4.92v6.61c1.71-2.44,3.47-4.22,5.28-5.34c2.49-1.5,5.1-2.25,7.85-2.25
		c1.85,0,3.61,0.36,5.28,1.09c1.67,0.73,3.03,1.69,4.08,2.9c1.06,1.21,1.97,2.94,2.75,5.19c1.64-3,3.68-5.28,6.14-6.84
		c2.46-1.56,5.1-2.34,7.93-2.34c2.64,0,4.97,0.67,7,2c2.02,1.34,3.52,3.2,4.51,5.59c0.98,2.39,1.47,5.98,1.47,10.76v20.88h-5.03
		V35.18c0-4.1-0.29-6.92-0.88-8.46c-0.58-1.53-1.58-2.77-3-3.71c-1.41-0.94-3.1-1.41-5.06-1.41c-2.38,0-4.56,0.7-6.54,2.11
		c-1.97,1.41-3.42,3.28-4.33,5.63c-0.91,2.34-1.37,6.26-1.37,11.74v14.98h-4.92V36.48c0-4.62-0.29-7.75-0.86-9.4
		c-0.57-1.65-1.58-2.98-3.01-3.97c-1.43-1-3.13-1.49-5.1-1.49c-2.27,0-4.4,0.69-6.38,2.06c-1.98,1.37-3.45,3.22-4.39,5.54
		s-1.42,5.87-1.42,10.65v16.21h-4.92V17.81z"/>
	<path class="st3" d="M117.22,17.81v38.25h-4.85v-6.57c-2.06,2.51-4.38,4.39-6.94,5.66s-5.37,1.9-8.42,1.9
		c-5.41,0-10.04-1.96-13.87-5.89c-3.83-3.93-5.75-8.7-5.75-14.33c0-5.51,1.93-10.22,5.8-14.13c3.87-3.91,8.52-5.87,13.96-5.87
		c3.14,0,5.98,0.67,8.53,2c2.54,1.34,4.78,3.34,6.7,6.01v-7.03H117.22z M97.55,21.58c-2.74,0-5.27,0.67-7.58,2.02
		c-2.32,1.35-4.16,3.24-5.53,5.67c-1.37,2.43-2.05,5.01-2.05,7.73c0,2.69,0.69,5.27,2.07,7.73c1.38,2.46,3.24,4.37,5.57,5.74
		c2.33,1.37,4.83,2.05,7.5,2.05c2.69,0,5.24-0.68,7.66-2.04c2.41-1.36,4.27-3.2,5.57-5.51s1.95-4.93,1.95-7.83
		c0-4.42-1.46-8.12-4.37-11.1C105.4,23.06,101.81,21.58,97.55,21.58z"/>
	<path class="st3" d="M125.71,17.81h5.03v5.59c1.5-2.2,3.08-3.85,4.75-4.94c1.66-1.09,3.4-1.63,5.2-1.63c1.36,0,2.81,0.43,4.36,1.3
		l-2.57,4.15c-1.03-0.44-1.9-0.67-2.6-0.67c-1.64,0-3.22,0.67-4.75,2.02c-1.52,1.35-2.68,3.44-3.48,6.28
		c-0.61,2.18-0.91,6.59-0.91,13.22v12.94h-5.03V17.81z"/>
	<path class="st3" d="M148.47,3.05h4.92v30.2l17.73-15.44h7.23l-21.02,18.25l22.25,20h-6.93l-19.26-17.22v17.22h-4.92V3.05z"/>
	<path class="st3" d="M222.11,3.05v53.02h-4.85v-6.57c-2.06,2.51-4.38,4.39-6.94,5.66s-5.37,1.9-8.42,1.9
		c-5.41,0-10.04-1.96-13.87-5.89c-3.83-3.93-5.75-8.7-5.75-14.33c0-5.51,1.93-10.22,5.8-14.13c3.87-3.91,8.52-5.87,13.96-5.87
		c3.14,0,5.98,0.67,8.53,2c2.54,1.34,4.78,3.34,6.7,6.01V3.05H222.11z M202.44,21.58c-2.74,0-5.27,0.67-7.58,2.02
		c-2.32,1.35-4.16,3.24-5.53,5.67c-1.37,2.43-2.05,5.01-2.05,7.73c0,2.69,0.69,5.27,2.07,7.73c1.38,2.46,3.24,4.37,5.57,5.74
		c2.33,1.37,4.83,2.05,7.5,2.05c2.69,0,5.24-0.68,7.66-2.04c2.41-1.36,4.27-3.2,5.57-5.51s1.95-4.93,1.95-7.83
		c0-4.42-1.46-8.12-4.37-11.1C210.29,23.06,206.7,21.58,202.44,21.58z"/>
</g>
<g>
	<path class="st4" d="M8.4,14.9H18v4.39c1.64-1.8,3.46-3.15,5.47-4.04c2-0.89,4.19-1.34,6.56-1.34c2.39,0,4.55,0.59,6.47,1.76
		c1.92,1.17,3.47,2.88,4.64,5.13c1.52-2.25,3.39-3.96,5.61-5.13c2.22-1.17,4.64-1.76,7.27-1.76c2.72,0,5.11,0.63,7.18,1.9
		c2.06,1.27,3.55,2.92,4.45,4.96c0.9,2.04,1.35,5.36,1.35,9.95v22.43h-9.67V33.74c0-4.34-0.54-7.27-1.62-8.81
		c-1.08-1.53-2.7-2.3-4.85-2.3c-1.64,0-3.11,0.47-4.41,1.41c-1.3,0.94-2.27,2.23-2.9,3.88s-0.95,4.31-0.95,7.96v17.26h-9.67V34.62
		c0-3.42-0.25-5.9-0.76-7.44c-0.51-1.53-1.26-2.68-2.27-3.43c-1.01-0.75-2.23-1.13-3.67-1.13c-1.6,0-3.05,0.47-4.35,1.42
		s-2.28,2.28-2.92,3.99C18.32,29.76,18,32.45,18,36.13v17.02H8.4V14.9z"/>
	<path class="st4" d="M101.51,14.9h9.6v38.25h-9.6v-4.04c-1.87,1.78-3.75,3.06-5.64,3.85c-1.88,0.79-3.93,1.18-6.13,1.18
		c-4.94,0-9.21-1.92-12.82-5.75c-3.6-3.83-5.41-8.6-5.41-14.29c0-5.91,1.74-10.75,5.23-14.52c3.49-3.77,7.72-5.66,12.71-5.66
		c2.29,0,4.45,0.43,6.46,1.3c2.01,0.87,3.87,2.17,5.58,3.9V14.9z M91.42,22.77c-2.97,0-5.43,1.05-7.39,3.15
		c-1.96,2.1-2.94,4.79-2.94,8.07c0,3.3,1,6.02,3,8.16c2,2.13,4.46,3.2,7.38,3.2c3.01,0,5.51-1.05,7.5-3.15
		c1.99-2.1,2.98-4.85,2.98-8.24c0-3.33-0.99-6.02-2.98-8.09C96.97,23.81,94.46,22.77,91.42,22.77z"/>
	<path class="st4" d="M117.7,14.9h8.23v4.82c0.89-1.9,2.07-3.34,3.55-4.32s3.09-1.48,4.85-1.48c1.24,0,2.54,0.33,3.9,0.98
		l-2.99,8.26c-1.13-0.56-2.05-0.84-2.78-0.84c-1.48,0-2.72,0.91-3.74,2.74s-1.53,5.41-1.53,10.76l0.04,1.86v15.47h-9.53V14.9z"/>
	<path class="st4" d="M142.18,0.13h9.6v30.54l14.13-15.77h12.05l-16.48,18.33l18.45,19.92h-11.91l-16.24-17.63v17.63h-9.6V0.13z"/>
	<path class="st4" d="M209.24,0.13h9.6v53.02h-9.6v-4.04c-1.87,1.78-3.75,3.06-5.64,3.85c-1.88,0.79-3.93,1.18-6.13,1.18
		c-4.94,0-9.21-1.92-12.82-5.75c-3.6-3.83-5.41-8.6-5.41-14.29c0-5.91,1.74-10.75,5.23-14.52c3.49-3.77,7.72-5.66,12.71-5.66
		c2.29,0,4.45,0.43,6.46,1.3c2.01,0.87,3.87,2.17,5.58,3.9V0.13z M199.15,22.77c-2.97,0-5.43,1.05-7.39,3.15
		c-1.96,2.1-2.94,4.79-2.94,8.07c0,3.3,1,6.02,3,8.16c2,2.13,4.46,3.2,7.38,3.2c3.01,0,5.51-1.05,7.5-3.15
		c1.99-2.1,2.98-4.85,2.98-8.24c0-3.33-0.99-6.02-2.98-8.09C204.7,23.81,202.19,22.77,199.15,22.77z"/>
</g>
</svg>
