<?xml version="1.0" encoding="utf-8"?>
<!-- Generator: Adobe Illustrator 23.0.0, SVG Export Plug-In . SVG Version: 6.00 Build 0)  -->
<svg version="1.1" id="Layer_1" xmlns="http://www.w3.org/2000/svg" xmlns:xlink="http://www.w3.org/1999/xlink" x="0px" y="0px"
	 viewBox="0 0 239 60" style="enable-background:new 0 0 239 60;" xml:space="preserve">
<style type="text/css">
	.st0{opacity:0.5;}
	.st1{fill:#02EBCD;stroke:#07DDBE;stroke-miterlimit:10;}
	.st2{fill:#3D4852;}
</style>
<g>
	<g class="st0">
		<path class="st1" d="M2,45.56c59.18-20.03,118.3,15.12,177.59,8.63c16.49-1.81,32.89-7.04,48.87-17.24
			c1.12-0.72,3.12-10.08,3.82-12.38c0.7-2.31,2.58-11.84,3.72-12.57c-57.44,36.67-116.66,6.42-174.86,2.61
			c-17.25-1.13-34.51,0.21-51.61,6c-0.95,0.32-3.23,10.43-3.82,12.38C5.13,34.94,2.96,45.23,2,45.56L2,45.56z"/>
	</g>
	<g class="st0">
		<path class="st1" d="M233.65,14.88c-29.29-6.86-58.7-3.18-88.04-0.71c-29.53,2.49-59.04,1.77-88.57-0.81
			C40.23,11.89,23.43,9.95,6.64,8c-0.18-0.02-0.92,31.1-0.9,31.1c29.53,3.42,59.07,6.84,88.63,7.67c29.49,0.82,58.89-3.11,88.36-4.5
			c16.69-0.78,33.39-0.19,50.01,3.71C232.71,45.98,233.88,14.93,233.65,14.88L233.65,14.88z"/>
	</g>
	<g class="st0">
		<path class="st1" d="M6,49.87c74.9,5.48,149.86,6.57,224.79,3.27c0.94-0.04,1.48-30.78,2.21-30.81
			c-74.93,3.3-149.89,2.21-224.79-3.27C7.53,19.01,6.46,49.91,6,49.87L6,49.87z"/>
	</g>
</g>
<g>
	<path class="st2" d="M15.26,17.81h4.92v6.61c1.71-2.44,3.47-4.22,5.28-5.34c2.49-1.5,5.1-2.25,7.85-2.25
		c1.85,0,3.61,0.36,5.28,1.09c1.67,0.73,3.03,1.69,4.08,2.9c1.06,1.21,1.97,2.94,2.75,5.19c1.64-3,3.68-5.28,6.14-6.84
		c2.46-1.56,5.1-2.34,7.93-2.34c2.64,0,4.97,0.67,7,2c2.02,1.34,3.52,3.2,4.51,5.59c0.98,2.39,1.47,5.98,1.47,10.76v20.88h-5.03
		V35.18c0-4.1-0.29-6.92-0.88-8.46c-0.58-1.53-1.58-2.77-3-3.71c-1.41-0.94-3.1-1.41-5.06-1.41c-2.38,0-4.56,0.7-6.54,2.11
		c-1.97,1.41-3.42,3.28-4.33,5.63c-0.91,2.34-1.37,6.26-1.37,11.74v14.98h-4.92V36.48c0-4.62-0.29-7.75-0.86-9.4
		c-0.57-1.65-1.58-2.98-3.01-3.97c-1.43-1-3.13-1.49-5.1-1.49c-2.27,0-4.4,0.69-6.38,2.06c-1.98,1.37-3.45,3.22-4.39,5.54
		s-1.42,5.87-1.42,10.65v16.21h-4.92V17.81z"/>
	<path class="st2" d="M117.22,17.81v38.25h-4.85v-6.57c-2.06,2.51-4.38,4.39-6.94,5.66s-5.37,1.9-8.42,1.9
		c-5.41,0-10.04-1.96-13.87-5.89c-3.83-3.93-5.75-8.7-5.75-14.33c0-5.51,1.93-10.22,5.8-14.13c3.87-3.91,8.52-5.87,13.96-5.87
		c3.14,0,5.98,0.67,8.53,2c2.54,1.34,4.78,3.34,6.7,6.01v-7.03H117.22z M97.55,21.58c-2.74,0-5.27,0.67-7.58,2.02
		c-2.32,1.35-4.16,3.24-5.53,5.67c-1.37,2.43-2.05,5.01-2.05,7.73c0,2.69,0.69,5.27,2.07,7.73c1.38,2.46,3.24,4.37,5.57,5.74
		c2.33,1.37,4.83,2.05,7.5,2.05c2.69,0,5.24-0.68,7.66-2.04c2.41-1.36,4.27-3.2,5.57-5.51s1.95-4.93,1.95-7.83
		c0-4.42-1.46-8.12-4.37-11.1C105.4,23.06,101.81,21.58,97.55,21.58z"/>
	<path class="st2" d="M125.71,17.81h5.03v5.59c1.5-2.2,3.08-3.85,4.75-4.94c1.66-1.09,3.4-1.63,5.2-1.63c1.36,0,2.81,0.43,4.36,1.3
		l-2.57,4.15c-1.03-0.44-1.9-0.67-2.6-0.67c-1.64,0-3.22,0.67-4.75,2.02c-1.52,1.35-2.68,3.44-3.48,6.28
		c-0.61,2.18-0.91,6.59-0.91,13.22v12.94h-5.03V17.81z"/>
	<path class="st2" d="M148.47,3.05h4.92v30.2l17.73-15.44h7.23l-21.02,18.25l22.25,20h-6.93l-19.26-17.22v17.22h-4.92V3.05z"/>
	<path class="st2" d="M222.11,3.05v53.02h-4.85v-6.57c-2.06,2.51-4.38,4.39-6.94,5.66s-5.37,1.9-8.42,1.9
		c-5.41,0-10.04-1.96-13.87-5.89c-3.83-3.93-5.75-8.7-5.75-14.33c0-5.51,1.93-10.22,5.8-14.13c3.87-3.91,8.52-5.87,13.96-5.87
		c3.14,0,5.98,0.67,8.53,2c2.54,1.34,4.78,3.34,6.7,6.01V3.05H222.11z M202.44,21.58c-2.74,0-5.27,0.67-7.58,2.02
		c-2.32,1.35-4.16,3.24-5.53,5.67c-1.37,2.43-2.05,5.01-2.05,7.73c0,2.69,0.69,5.27,2.07,7.73c1.38,2.46,3.24,4.37,5.57,5.74
		c2.33,1.37,4.83,2.05,7.5,2.05c2.69,0,5.24-0.68,7.66-2.04c2.41-1.36,4.27-3.2,5.57-5.51s1.95-4.93,1.95-7.83
		c0-4.42-1.46-8.12-4.37-11.1C210.29,23.06,206.7,21.58,202.44,21.58z"/>
</g>
</svg>
