<svg id="Layer_1" data-name="Layer 1" xmlns="http://www.w3.org/2000/svg" viewBox="0 0 76 48"><defs><style>.cls-1{opacity:0.5;}.cls-2{fill:#02ebcd;stroke:#07ddbe;stroke-miterlimit:10;}.cls-3{fill:#3d4852;}</style></defs><title>Artboard 1</title><g class="cls-1"><path class="cls-2" d="M3,37.29a171.16,171.16,0,0,0,70.31,3.64c.29,0,.46-34.26.69-34.3A171,171,0,0,1,3.69,3C3.48,2.94,3.15,37.33,3,37.29Z"/></g><path class="cls-3" d="M8.4,6.9H18v4.39a16.36,16.36,0,0,1,5.47-4A16,16,0,0,1,30,5.91,12.2,12.2,0,0,1,36.5,7.67a12.8,12.8,0,0,1,4.65,5.14A15.12,15.12,0,0,1,54,5.91a13.53,13.53,0,0,1,7.18,1.9,11,11,0,0,1,4.45,5Q67,15.83,67,22.72V45.15H57.34V25.74c0-4.33-.54-7.27-1.62-8.8a5.54,5.54,0,0,0-4.85-2.31A7.34,7.34,0,0,0,46.46,16a8.33,8.33,0,0,0-2.91,3.88,24.34,24.34,0,0,0-.94,8V45.15H32.94V26.62a26.19,26.19,0,0,0-.76-7.43,6.74,6.74,0,0,0-2.27-3.43,6,6,0,0,0-3.67-1.13,7.2,7.2,0,0,0-4.35,1.43,8.56,8.56,0,0,0-2.93,4,24.84,24.84,0,0,0-1,8.08v17H8.4Z"/></svg>